# xmcd
#
# Track frame offsets:
#	150
#	14092
#	29640
#	44227
#	62272
#	78889
#	92557
#	107169
#	120079
#	138268
#
# Disc length: 2092 seconds
#
# Revision: 2
# Processed by: cddbd v1.5.2PL0 Copyright (c) Steve Scherf et al.
# Submitted via: audiograbber 1.83.01
#
DISCID=7c082a0a
DTITLE=Leon Bridges - Good Thing
DYEAR=2018
DGENRE=Soul
TTITLE0=Bet Ain't Worth The Hand
TTITLE1=Bad Bad News
TTITLE2=Shy
TTITLE3=Beyond
TTITLE4=Forgive You
TTITLE5=Lions
TTITLE6=If It Feels Good (Then It Must Be)
TTITLE7=You Don't Know
TTITLE8=Mrs.
TTITLE9=Georgia To Texas
EXTD=
EXTT0=
EXTT1=
EXTT2=
EXTT3=
EXTT4=
EXTT5=
EXTT6=
EXTT7=
EXTT8=
EXTT9=
PLAYORDER=
